<svg xmlns="http://www.w3.org/2000/svg" viewBox="0 0 48 48">
  <path fill="#EA4335" d="M24 9.5c3.14 0 5.95 1.08 8.17 2.86l6.08-6.08C34.46 3.19 29.5 1 24 1 14.82 1 7.07 6.48 3.64 14.22l7.1 5.52C12.4 13.67 17.73 9.5 24 9.5z"/>
  <path fill="#4285F4" d="M46.52 24.5c0-1.64-.15-3.22-.42-4.75H24v9h12.7c-.55 2.96-2.2 5.47-4.67 7.16l7.18 5.57C43.45 37.3 46.52 31.36 46.52 24.5z"/>
  <path fill="#FBBC05" d="M10.74 28.26A14.6 14.6 0 0 1 9.5 24c0-1.48.26-2.91.74-4.26l-7.1-5.52A23.94 23.94 0 0 0 0 24c0 3.87.93 7.52 2.56 10.74l8.18-6.48z"/>
  <path fill="#34A853" d="M24 47c5.5 0 10.12-1.82 13.5-4.94l-7.18-5.57C28.54 38.1 26.38 38.5 24 38.5c-6.27 0-11.6-4.17-13.26-9.74l-8.18 6.48C6.07 42.52 14.43 47 24 47z"/>
</svg>
