<svg width="200" height="200" viewBox="0 0 200 200" xmlns="http://www.w3.org/2000/svg"><defs><linearGradient id="grad1" x1="0%" y1="0%" x2="100%" y2="100%"><stop offset="0%" style="stop-color:#c3b5fd;stop-opacity:1" /><stop offset="100%" style="stop-color:#8b5cf6;stop-opacity:1" /></linearGradient></defs><circle cx="100" cy="100" r="90" fill="none" stroke="url(#grad1)" stroke-width="4" opacity="0.2"/><path d="M60 70C60 58.9543 68.9543 50 80 50H120C131.046 50 140 58.9543 140 70V110C140 121.046 131.046 130 120 130H85L65 150V130C62.2386 130 60 127.761 60 125V70Z" fill="none" stroke="url(#grad1)" stroke-width="8" stroke-linejoin="round"/><circle cx="90" cy="90" r="10" fill="url(#grad1)"/><path d="M105 80C110.523 80 115 84.4772 115 90C115 95.5228 110.523 100 105 100" fill="none" stroke="url(#grad1)" stroke-width="4" stroke-linecap="round"/><path d="M115 70C126.046 70 135 78.9543 135 90C135 101.046 126.046 110 115 110" fill="none" stroke="url(#grad1)" stroke-width="4" stroke-linecap="round" opacity="0.6"/></svg>